<svg width="32" height="32" viewBox="0 0 32 32" fill="none" xmlns="http://www.w3.org/2000/svg">
<path fill-rule="evenodd" clip-rule="evenodd" d="M16 28.16C16.5302 28.16 16.96 27.7302 16.96 27.2C16.96 19.9233 11.3116 13.9658 4.16001 13.473V6.39999C4.16001 5.16287 5.16289 4.15999 6.40001 4.15999H24C25.2371 4.15999 26.24 5.16287 26.24 6.39999V16C26.24 16.5302 26.6698 16.96 27.2 16.96C27.7302 16.96 28.16 16.5302 28.16 16V6.39999C28.16 4.10249 26.2975 2.23999 24 2.23999H6.40001C4.1025 2.23999 2.24001 4.10249 2.24001 6.39999V14.4V24C2.24001 26.2975 4.1025 28.16 6.40001 28.16H16ZM15.0016 26.24C14.5384 20.4665 9.93345 15.8616 4.16001 15.3983V24C4.16001 25.2371 5.16289 26.24 6.40001 26.24H15.0016ZM19.4402 8.96C18.424 8.96 17.6002 9.7838 17.6002 10.8C17.6002 11.8162 18.424 12.64 19.4402 12.64C20.4564 12.64 21.2802 11.8162 21.2802 10.8C21.2802 9.7838 20.4564 8.96 19.4402 8.96ZM15.6802 10.8C15.6802 8.72341 17.3636 7.04 19.4402 7.04C21.5168 7.04 23.2002 8.72341 23.2002 10.8C23.2002 12.8766 21.5168 14.56 19.4402 14.56C17.3636 14.56 15.6802 12.8766 15.6802 10.8ZM25.76 20.8C25.76 20.2698 25.3302 19.84 24.8 19.84C24.2698 19.84 23.84 20.2698 23.84 20.8V23.84H20.8C20.2698 23.84 19.84 24.2698 19.84 24.8C19.84 25.3302 20.2698 25.76 20.8 25.76H23.84V28.8C23.84 29.3302 24.2698 29.76 24.8 29.76C25.3302 29.76 25.76 29.3302 25.76 28.8V25.76H28.8C29.3302 25.76 29.76 25.3302 29.76 24.8C29.76 24.2698 29.3302 23.84 28.8 23.84H25.76V20.8Z" fill="#F9FBFC"/>
</svg>
