<svg width="16" height="16" viewBox="0 0 16 16" fill="none" xmlns="http://www.w3.org/2000/svg">
<path fill-rule="evenodd" clip-rule="evenodd" d="M6.6665 1.66669C6.41399 1.66669 6.18315 1.80936 6.07022 2.03521L5.08781 4.00002H3.6665H2.33317C1.96498 4.00002 1.6665 4.2985 1.6665 4.66669C1.6665 5.03488 1.96498 5.33335 2.33317 5.33335H2.99984V12.3334C2.99984 13.4379 3.89527 14.3334 4.99984 14.3334H10.9998C12.1044 14.3334 12.9998 13.4379 12.9998 12.3334V5.33335H13.6665C14.0347 5.33335 14.3332 5.03488 14.3332 4.66669C14.3332 4.2985 14.0347 4.00002 13.6665 4.00002H12.3332H10.9119L9.92945 2.03521C9.81653 1.80936 9.58569 1.66669 9.33317 1.66669H6.6665ZM9.42115 4.00002L8.92115 3.00002H7.07853L6.57853 4.00002H9.42115ZM11.6665 5.33335H4.33317V12.3334C4.33317 12.7015 4.63165 13 4.99984 13H10.9998C11.368 13 11.6665 12.7015 11.6665 12.3334V5.33335ZM6.6665 7.00002C7.03469 7.00002 7.33317 7.2985 7.33317 7.66669V10.3334C7.33317 10.7015 7.03469 11 6.6665 11C6.29831 11 5.99984 10.7015 5.99984 10.3334V7.66669C5.99984 7.2985 6.29831 7.00002 6.6665 7.00002ZM9.33317 7.00002C9.70136 7.00002 9.99984 7.2985 9.99984 7.66669V10.3334C9.99984 10.7015 9.70136 11 9.33317 11C8.96498 11 8.6665 10.7015 8.6665 10.3334V7.66669C8.6665 7.2985 8.96498 7.00002 9.33317 7.00002Z" fill="currentColor"/>
</svg>
