<svg width="15" height="14" viewBox="0 0 15 14" fill="none" xmlns="http://www.w3.org/2000/svg">
<path d="M7.5 13.4166C3.95617 13.4166 1.08334 10.5438 1.08334 6.99998C1.08334 3.45615 3.95617 0.583313 7.5 0.583313C11.0438 0.583313 13.9167 3.45615 13.9167 6.99998C13.9167 10.5438 11.0438 13.4166 7.5 13.4166ZM7.5 12.1333C10.3351 12.1333 12.6333 9.83506 12.6333 6.99998C12.6333 4.16492 10.3351 1.86665 7.5 1.86665C4.66494 1.86665 2.36667 4.16492 2.36667 6.99998C2.36667 9.83506 4.66494 12.1333 7.5 12.1333ZM6.85834 8.92498H8.14167V10.2083H6.85834V8.92498ZM6.85834 3.79165H8.14167V7.64165H6.85834V3.79165Z" fill="currentColor"/>
</svg>
