<svg width="28" height="28" viewBox="0 0 28 28" fill="none" xmlns="http://www.w3.org/2000/svg">
<path fill-rule="evenodd" clip-rule="evenodd" d="M13.9999 5.24999C18.8324 5.24999 22.7499 9.1675 22.7499 14C22.7499 18.8325 18.8324 22.75 13.9999 22.75C9.16743 22.75 5.24992 18.8325 5.24992 14C5.24992 13.3557 4.72758 12.8333 4.08325 12.8333C3.43892 12.8333 2.91658 13.3557 2.91658 14C2.91658 20.1211 7.87876 25.0833 13.9999 25.0833C20.1211 25.0833 25.0833 20.1211 25.0833 14C25.0833 7.87883 20.1211 2.91666 13.9999 2.91666C13.3556 2.91666 12.8333 3.43899 12.8333 4.08332C12.8333 4.72766 13.3556 5.24999 13.9999 5.24999Z" fill="currentColor"/>
</svg>
