<svg width="16" height="16" viewBox="0 0 16 16" fill="none" xmlns="http://www.w3.org/2000/svg">
<path d="M9.5671 2.56223C11.0775 2.71398 12.2893 3.62353 12.5479 5.18383H11.6736L13.0845 7.28502L14.4963 5.18383H13.5225C13.264 3.08264 11.6746 1.71691 9.66662 1.52234C9.38854 1.5 9.13092 1.73833 9.13092 2.04182C9.14952 2.30249 9.32808 2.53989 9.5671 2.56223ZM7.38153 1.5H2.47374C2.19566 1.5 1.97711 1.73833 1.97711 2.04182V6.72179C1.97711 7.02528 2.19566 7.26361 2.47374 7.26361H7.38153C7.65961 7.26361 7.87816 7.02528 7.87816 6.72179V2.04182C7.87816 1.73833 7.65961 1.5 7.38153 1.5ZM6.90442 6.22372H2.95085V2.53989H6.90535V6.22372H6.90442ZM6.42731 13.4173C4.73837 13.2655 3.44656 12.1391 3.38704 10.2753H4.32079L2.91086 8.17409L1.5 10.2753H2.43375C2.47281 12.6809 4.16175 14.2403 6.32873 14.4572C6.60681 14.4786 6.86536 14.2403 6.86536 13.9368C6.86708 13.8119 6.82371 13.6906 6.74324 13.5952C6.66276 13.4997 6.55058 13.4366 6.42731 13.4173ZM13.5421 8.71498H8.63335C8.35434 8.71498 8.13671 8.95424 8.13671 9.2568V13.9591C8.13671 14.2617 8.35434 14.5 8.63335 14.5H13.5411C13.8192 14.5 14.0368 14.2617 14.0368 13.9591V9.2568C14.0378 8.95424 13.7997 8.71498 13.5421 8.71498ZM13.064 13.4387H9.11046V9.77628H13.064V13.4387Z" fill="currentColor"/>
</svg>
